nColumns=19
nRows=141
DataType=double
version=3
OpenSimVersion=4.1
endheader
time	ground_force_calcn_r_vx	ground_force_calcn_r_vy	ground_force_calcn_r_vz	ground_force_calcn_r_px	ground_force_calcn_r_py	ground_force_calcn_r_pz	ground_force_calcn_r_mx	ground_force_calcn_r_my	ground_force_calcn_r_mz	ground_force_calcn_l_vx	ground_force_calcn_l_vy	ground_force_calcn_l_vz	ground_force_calcn_l_px	ground_force_calcn_l_py	ground_force_calcn_l_pz	ground_force_calcn_l_mx	ground_force_calcn_l_my	ground_force_calcn_l_mz
0.55	-4.49628	10.7532	-3.52026	1.08269	0	-0.216842	0.138737	-0.3318	0.108621	0	0	0	0	0	0	0	0	0
0.56	-19.2291	34.2815	-9.05367	1.17887	0	-0.301679	-0.475348	0.847448	-0.223809	0	0	0	0	0	0	0	0	0
0.57	-64.1052	120.56	-17.6821	1.21883	0	-0.311062	-1.1608	2.18308	-0.320184	0	0	0	0	0	0	0	0	0
0.58	-139.343	304.493	-25.5318	1.21917	0	-0.309764	-1.45029	3.16918	-0.265737	0	0	0	0	0	0	0	0	0
0.59	-172.601	556.683	-25.5902	1.19223	0	-0.311344	-1.00014	3.22573	-0.148284	0	0	0	0	0	0	0	0	0
0.6	-134.527	843.424	-12.514	1.13623	0	-0.316276	-0.267313	1.67593	-0.0248659	0	0	0	0	0	0	0	0	0
0.61	-119.676	1126.93	13.2419	1.08596	0	-0.321079	0.120528	-1.13494	-0.013336	0	0	0	0	0	0	0	0	0
0.62	-151.502	1344.28	42.4984	1.05359	0	-0.323863	0.453238	-4.02157	-0.127139	0	0	0	0	0	0	0	0	0
0.63	-161.586	1506.74	61.2784	1.02271	0	-0.326039	0.638189	-5.95093	-0.242021	0	0	0	0	0	0	0	0	0
0.64	-119.609	1650.69	65.1777	0.984703	0	-0.327244	0.462248	-6.37938	-0.25189	0	0	0	0	0	0	0	0	0
0.65	-58.6156	1756.73	61.4609	0.94592	0	-0.326883	0.178713	-5.35607	-0.187388	0	0	0	0	0	0	0	0	0
0.66	-2.84749	1798.11	56.6852	0.910627	0	-0.32621	0.00556288	-3.5128	-0.110741	0	0	0	0	0	0	0	0	0
0.67	52.0428	1776.2	53.7203	0.87708	0	-0.325964	-0.0489044	-1.66909	-0.0504807	0	0	0	0	0	0	0	0	0
0.68	106.108	1697.01	54.1625	0.843911	0	-0.325815	-0.0268174	-0.428898	-0.0136889	0	0	0	0	0	0	0	0	0
0.69	153.648	1558.45	56.4945	0.810755	0	-0.325903	0.00145218	0.0147295	0.000533948	0	0	0	0	0	0	0	0	0
0.7	196.231	1356.53	57.4895	0.774981	0	-0.326594	-0.0215618	-0.149055	-0.00631694	0	0	0	0	0	0	0	0	0
0.71	234.287	1099.24	55.7451	0.732545	0	-0.327726	-0.113621	-0.533094	-0.0270344	0	0	0	0	0	0	0	0	0
0.72	249.325	819.468	51.7151	0.685466	0	-0.328896	-0.233557	-0.767641	-0.0484444	0	0	0	0	0	0	0	0	0
0.73	226.001	564.072	46.403	0.64483	0	-0.329482	-0.269396	-0.672379	-0.0553128	0	0	0	0	0	0	0	0	0
0.74	179.056	359.1	40.2293	0.619251	0	-0.328577	-0.139272	-0.279312	-0.0312908	0	0	0	0	0	0	0	0	0
0.75	125.183	206.684	32.5182	0.607104	0	-0.325189	0.151497	0.250131	0.0393537	0	0	0	0	0	0	0	0	0
0.76	71.3876	102.536	22.9582	0.604198	0	-0.316676	0.515756	0.740793	0.165867	0	0	0	0	0	0	0	0	0
0.77	28.2203	41.7671	13.1232	0.624217	0	-0.292571	0.80081	1.18523	0.372398	0	0	0	0	0	0	0	0	0
0.78	5.78651	13.8695	5.77387	0.680059	0	-0.230988	0.732434	1.75555	0.730833	0	0	0	0	0	0	0	0	0
0.79	0	0	0	0	0	0	0	0	0	0	0	0	0	0	0	0	0	0
0.8	0	0	0	0	0	0	0	0	0	0	0	0	0	0	0	0	0	0
0.81	0	0	0	0	0	0	0	0	0	0	0	0	0	0	0	0	0	0
0.82	0	0	0	0	0	0	0	0	0	0	0	0	0	0	0	0	0	0
0.83	0	0	0	0	0	0	0	0	0	0	0	0	0	0	0	0	0	0
0.84	0	0	0	0	0	0	0	0	0	-3.98408	11.3836	0.130929	1.11846	0	-0.286954	0.241858	-0.691055	-0.00794819
0.85	0	0	0	0	0	0	0	0	0	-17.4575	44.8554	0.998313	1.1287	0	-0.338345	1.20101	-3.08587	-0.06868
0.86	0	0	0	0	0	0	0	0	0	-51.2764	167.982	6.36708	1.13624	0	-0.360215	1.8747	-6.14155	-0.232785
0.87	0	0	0	0	0	0	0	0	0	-96.7832	460.923	20.0385	1.13719	0	-0.361203	1.9013	-9.05479	-0.393655
0.88	0	0	0	0	0	0	0	0	0	-124.471	877.924	36.1384	1.13038	0	-0.354629	1.51489	-10.6849	-0.439827
0.89	0	0	0	0	0	0	0	0	0	-136.476	1193.85	33.6724	1.11549	0	-0.34985	1.19797	-10.4795	-0.295572
0.9	0	0	0	0	0	0	0	0	0	-162.828	1313.43	2.41666	1.0949	0	-0.352512	1.0984	-8.86013	-0.0163023
0.91	0	0	0	0	0	0	0	0	0	-194.831	1378.52	-29.1636	1.06952	0	-0.358981	0.982639	-6.9526	0.147088
0.92	0	0	0	0	0	0	0	0	0	-193.783	1510.43	-27.4962	1.03692	0	-0.359997	0.738987	-5.75998	0.104856
0.93	0	0	0	0	0	0	0	0	0	-144.804	1672.86	-3.75896	0.997639	0	-0.357743	0.464086	-5.36138	0.0120472
0.94	0	0	0	0	0	0	0	0	0	-82.3769	1766.88	7.09158	0.960016	0	-0.358738	0.236723	-5.07741	-0.0203788
0.95	0	0	0	0	0	0	0	0	0	-34.1125	1768.75	-2.80652	0.925811	0	-0.361945	0.0800176	-4.14895	0.00658325
0.96	0	0	0	0	0	0	0	0	0	17.3797	1722.27	-16.9125	0.890334	0	-0.362631	-0.0224064	-2.2204	0.0218041
0.97	0	0	0	0	0	0	0	0	0	80.3126	1639.44	-27.0521	0.852801	0	-0.36057	0.0273523	0.558349	-0.00921321
0.98	0	0	0	0	0	0	0	0	0	143.619	1501.95	-37.2226	0.814292	0	-0.358466	0.348929	3.64907	-0.0904342
0.99	0	0	0	0	0	0	0	0	0	204.851	1314.47	-47.9839	0.772315	0	-0.356943	0.984682	6.31843	-0.230651
1	0	0	0	0	0	0	0	0	0	252.104	1101.39	-53.7658	0.727885	0	-0.355003	1.8092	7.90401	-0.385845
1.01	0	0	0	0	0	0	0	0	0	263.28	876.204	-51.5766	0.68839	0	-0.352585	2.45377	8.16623	-0.480694
1.02	0	0	0	0	0	0	0	0	0	242.191	648.067	-44.8904	0.656623	0	-0.350357	2.72066	7.28007	-0.504277
1.03	0	0	0	0	0	0	0	0	0	203.648	432.991	-38.0824	0.628145	0	-0.349012	2.64559	5.62499	-0.494729
1.04	0	0	0	0	0	0	0	0	0	152.008	254.021	-31.1598	0.60022	0	-0.347153	2.25278	3.76464	-0.461794
1.05	0	0	0	0	0	0	0	0	0	90.646	127.181	-22.3681	0.574822	0	-0.341698	1.6365	2.29609	-0.403829
1.06	0	0	0	0	0	0	0	0	0	39.1225	52.488	-12.7434	0.563042	0	-0.328296	1.04225	1.39832	-0.339494
1.07	0	0	0	0	0	0	0	0	0	11.3714	17.8937	-5.32968	0.665756	0	-0.288914	0.579428	0.911769	-0.271573
1.08	0	0	0	0	0	0	0	0	0	0	0	0	0	0	0	0	0	0
1.09	0	0	0	0	0	0	0	0	0	0	0	0	0	0	0	0	0	0
1.1	0	0	0	0	0	0	0	0	0	0	0	0	0	0	0	0	0	0
1.11	0	0	0	0	0	0	0	0	0	0	0	0	0	0	0	0	0	0
1.12	0	0	0	0	0	0	0	0	0	0	0	0	0	0	0	0	0	0
1.13	0	0	0	0	0	0	0	0	0	0	0	0	0	0	0	0	0	0
1.14	0	0	0	0	0	0	0	0	0	0	0	0	0	0	0	0	0	0
1.15	-3.56825	25.4179	-16.0632	1.25584	0	-0.313666	-0.243821	1.73682	-1.09761	0	0	0	0	0	0	0	0	0
1.16	-24.5605	105.114	-35.4634	1.21941	0	-0.336001	-1.35142	5.78379	-1.95134	0	0	0	0	0	0	0	0	0
1.17	-73.9238	337.018	-58.6018	1.19648	0	-0.333578	-2.17684	9.92419	-1.72565	0	0	0	0	0	0	0	0	0
1.18	-128.306	725.641	-68.6263	1.18526	0	-0.332293	-2.2015	12.4507	-1.17751	0	0	0	0	0	0	0	0	0
1.19	-137.231	1065.49	-50.1443	1.16652	0	-0.334515	-1.61994	12.5776	-0.591927	0	0	0	0	0	0	0	0	0
1.2	-154.903	1235.28	-13.0454	1.13831	0	-0.339072	-1.31553	10.4907	-0.110789	0	0	0	0	0	0	0	0	0
1.21	-215.748	1337.9	15.6714	1.10832	0	-0.344157	-1.19729	7.42468	0.0869685	0	0	0	0	0	0	0	0	0
1.22	-227	1487.58	25.5256	1.07042	0	-0.34747	-0.725812	4.75638	0.0816158	0	0	0	0	0	0	0	0	0
1.23	-174.87	1693.75	28.622	1.02619	0	-0.348315	-0.309471	2.99747	0.0506529	0	0	0	0	0	0	0	0	0
1.24	-113.871	1858.08	37.1185	0.987945	0	-0.347955	-0.128902	2.10334	0.042018	0	0	0	0	0	0	0	0	0
1.25	-76.6834	1914.58	49.8816	0.959524	0	-0.348598	-0.0707908	1.76746	0.0460485	0	0	0	0	0	0	0	0	0
1.26	-45.1578	1898.05	60.7777	0.933099	0	-0.349666	-0.0380277	1.59836	0.0511813	0	0	0	0	0	0	0	0	0
1.27	0.494681	1845.1	67.0789	0.903723	0	-0.349782	0.000346334	1.29179	0.046963	0	0	0	0	0	0	0	0	0
1.28	49.5244	1751.14	68.6973	0.873629	0	-0.349644	0.0201279	0.711702	0.0279202	0	0	0	0	0	0	0	0	0
1.29	89.0763	1602.95	67.7257	0.844399	0	-0.350416	-0.00458532	-0.0825139	-0.00348627	0	0	0	0	0	0	0	0	0
1.3	119.262	1402.12	67.3864	0.815084	0	-0.351851	-0.0724889	-0.85223	-0.0409584	0	0	0	0	0	0	0	0	0
1.31	137.639	1155.72	67.8133	0.78626	0	-0.353162	-0.149454	-1.25493	-0.0736349	0	0	0	0	0	0	0	0	0
1.32	144.999	873.647	64.7511	0.755387	0	-0.354313	-0.166166	-1.00118	-0.0742036	0	0	0	0	0	0	0	0	0
1.33	147.375	587.742	54.3371	0.714026	0	-0.355541	-0.0135671	-0.0541066	-0.00500219	0	0	0	0	0	0	0	0	0
1.34	133.168	347.392	38.6121	0.666139	0	-0.355219	0.465997	1.21563	0.135116	0	0	0	0	0	0	0	0	0
1.35	95.8031	178.762	23.7476	0.628289	0	-0.349801	1.18926	2.21908	0.294794	0	0	0	0	0	0	0	0	0
1.36	50.2155	78.4453	13.2606	0.628578	0	-0.331048	1.74408	2.72455	0.460565	0	0	0	0	0	0	0	0	0
1.37	18.4691	28.8892	6.72753	0.689758	0	-0.276774	1.8331	2.86733	0.667723	0	0	0	0	0	0	0	0	0
1.38	0	0	0	0	0	0	0	0	0	0	0	0	0	0	0	0	0	0
1.39	0	0	0	0	0	0	0	0	0	0	0	0	0	0	0	0	0	0
1.4	0	0	0	0	0	0	0	0	0	0	0	0	0	0	0	0	0	0
1.41	0	0	0	0	0	0	0	0	0	0	0	0	0	0	0	0	0	0
1.42	0	0	0	0	0	0	0	0	0	0	0	0	0	0	0	0	0	0
1.43	0	0	0	0	0	0	0	0	0	0	0	0	0	0	0	0	0	0
1.44	0	0	0	0	0	0	0	0	0	0	0	0	0	0	0	0	0	0
1.45	0	0	0	0	0	0	0	0	0	0	0	0	0	0	0	0	0	0
1.46	0	0	0	0	0	0	0	0	0	0	0	0	0	0	0	0	0	0
1.47	0	0	0	0	0	0	0	0	0	0	0	0	0	0	0	0	0	0
1.48	0	0	0	0	0	0	0	0	0	-4.29346	20.1072	3.57668	1.07128	0	-0.386367	-0.28502	1.33481	0.237437
1.49	0	0	0	0	0	0	0	0	0	-11.6975	86.3164	10.2424	1.13125	0	-0.385856	0.37295	-2.75203	-0.32656
1.5	0	0	0	0	0	0	0	0	0	-33.232	291.907	27.4563	1.1224	0	-0.384858	0.823028	-7.22942	-0.679987
1.51	0	0	0	0	0	0	0	0	0	-77.7359	685.002	54.9395	1.11376	0	-0.377533	1.18609	-10.4517	-0.838266
1.52	0	0	0	0	0	0	0	0	0	-137.645	1113	72.3126	1.10719	0	-0.368445	1.37598	-11.1262	-0.722878
1.53	0	0	0	0	0	0	0	0	0	-191.171	1369.87	49.381	1.09668	0	-0.36459	1.2619	-9.04236	-0.325959
1.54	0	0	0	0	0	0	0	0	0	-224.238	1483.73	-6.88974	1.07629	0	-0.368745	0.810804	-5.36487	0.024912
1.55	0	0	0	0	0	0	0	0	0	-227.576	1596.35	-44.2418	1.04695	0	-0.372457	0.280329	-1.9664	0.0544973
1.56	0	0	0	0	0	0	0	0	0	-195.577	1754.1	-33.8424	1.0118	0	-0.370219	0.0116725	-0.104689	0.00201979
1.57	0	0	0	0	0	0	0	0	0	-128.597	1884.27	-6.87647	0.974487	0	-0.368268	-0.0175924	0.257773	-0.000940718
1.58	0	0	0	0	0	0	0	0	0	-55.7207	1915.8	-1.07227	0.939145	0	-0.369892	-0.00376304	0.129382	-7.24147e-05
1.59	0	0	0	0	0	0	0	0	0	4.58927	1856.31	-14.9433	0.905705	0	-0.371114	0.0015117	0.611466	-0.00492232
1.6	0	0	0	0	0	0	0	0	0	66.1019	1735.15	-31.1399	0.871361	0	-0.368906	0.0839567	2.20383	-0.0395511
1.61	0	0	0	0	0	0	0	0	0	133.9	1550.96	-45.7626	0.834754	0	-0.365301	0.400624	4.64043	-0.13692
1.62	0	0	0	0	0	0	0	0	0	199.124	1304.69	-60.2366	0.794278	0	-0.362626	1.07855	7.06682	-0.32627
1.63	0	0	0	0	0	0	0	0	0	242.78	1028.32	-68.8578	0.750156	0	-0.36072	1.99742	8.4603	-0.566512
1.64	0	0	0	0	0	0	0	0	0	243.285	760.261	-65.1808	0.709092	0	-0.358467	2.6491	8.27839	-0.709746
1.65	0	0	0	0	0	0	0	0	0	207.83	521.711	-51.6874	0.678548	0	-0.355718	2.6651	6.69014	-0.66281
1.66	0	0	0	0	0	0	0	0	0	159.734	322.415	-36.383	0.6568	0	-0.353639	2.11059	4.26011	-0.480732
1.67	0	0	0	0	0	0	0	0	0	106.045	171.766	-23.8896	0.638274	0	-0.353274	1.15356	1.86847	-0.25987
1.68	0	0	0	0	0	0	0	0	0	53.1152	76.0005	-14.3007	0.624303	0	-0.35469	0.156334	0.223693	-0.0420914
1.69	0	0	0	0	0	0	0	0	0	17.0149	28.1735	-7.10866	0.648843	0	-0.354958	-0.432345	-0.715882	0.18063
1.7	0	0	0	0	0	0	0	0	0	2.32288	10.4414	-2.51022	0.831786	0	-0.308272	-0.28898	-1.29898	0.312288
1.71	0	0	0	0	0	0	0	0	0	0	0	0	0	0	0	0	0	0
1.72	0	0	0	0	0	0	0	0	0	0	0	0	0	0	0	0	0	0
1.73	0	0	0	0	0	0	0	0	0	0	0	0	0	0	0	0	0	0
1.74	0	0	0	0	0	0	0	0	0	0	0	0	0	0	0	0	0	0
1.75	0	0	0	0	0	0	0	0	0	0	0	0	0	0	0	0	0	0
1.76	0	0	0	0	0	0	0	0	0	0	0	0	0	0	0	0	0	0
1.77	0	0	0	0	0	0	0	0	0	0	0	0	0	0	0	0	0	0
1.78	-3.97738	14.4907	-7.92563	1.1982	0	-0.282636	0.0799134	-0.291146	0.159241	0	0	0	0	0	0	0	0	0
1.79	-20.421	58.8253	-20.7235	1.21432	0	-0.343731	-0.971915	2.79973	-0.986314	0	0	0	0	0	0	0	0	0
1.8	-68.6784	205.128	-40.0547	1.19505	0	-0.34818	-2.44955	7.31629	-1.42863	0	0	0	0	0	0	0	0	0
1.81	-131.039	503.598	-57.6443	1.18384	0	-0.343811	-3.14171	12.074	-1.38204	0	0	0	0	0	0	0	0	0
1.82	-132.018	867.407	-60.3707	1.16138	0	-0.342201	-2.35667	15.4842	-1.07769	0	0	0	0	0	0	0	0	0
1.83	-104.142	1179.07	-41.1788	1.12525	0	-0.345694	-1.40858	15.9476	-0.556967	0	0	0	0	0	0	0	0	0
1.84	-148.544	1412.27	-3.92574	1.09209	0	-0.35195	-1.41617	13.4641	-0.0374267	0	0	0	0	0	0	0	0	0
1.85	-192.418	1590.61	38.1269	1.06173	0	-0.356335	-1.12362	9.28833	0.222641	0	0	0	0	0	0	0	0	0
1.86	-166.817	1761.19	68.4151	1.02394	0	-0.358463	-0.456595	4.82055	0.187259	0	0	0	0	0	0	0	0	0
1.87	-101.459	1902.03	82.0809	0.983879	0	-0.359477	-0.0538184	1.00892	0.0435394	0	0	0	0	0	0	0	0	0
1.88	-38.1169	1956.98	87.1134	0.949391	0	-0.360412	0.0323523	-1.66101	-0.0739387	0	0	0	0	0	0	0	0	0
1.89	20.2193	1928.69	91.2226	0.917178	0	-0.361711	-0.0334501	-3.19075	-0.150915	0	0	0	0	0	0	0	0	0
1.9	82.0779	1835.14	96.658	0.883219	0	-0.363029	-0.169894	-3.79858	-0.200074	0	0	0	0	0	0	0	0	0
1.91	134.721	1675.86	100.518	0.848161	0	-0.364339	-0.293913	-3.65612	-0.219295	0	0	0	0	0	0	0	0	0
1.92	180.55	1446.46	97.3642	0.809783	0	-0.366135	-0.354241	-2.83798	-0.19103	0	0	0	0	0	0	0	0	0
1.93	225.177	1156.91	85.1639	0.764947	0	-0.368529	-0.280792	-1.44265	-0.106198	0	0	0	0	0	0	0	0	0
1.94	244.386	850.952	67.4006	0.719981	0	-0.370006	0.0689566	0.240107	0.0190179	0	0	0	0	0	0	0	0	0
1.95	216.11	577.23	49.0837	0.686651	0	-0.36913	0.670352	1.79051	0.152253	0	0	0	0	0	0	0	0	0
